<?xml version="1.0" encoding="UTF-8"?>
<!DOCTYPE svg PUBLIC "-//W3C//DTD SVG 1.1//EN" "http://www.w3.org/Graphics/SVG/1.1/DTD/svg11.dtd">
<svg version="1.2" width="119.03mm" height="50.04mm" viewBox="999 999 11903 5004" preserveAspectRatio="xMidYMid" fill-rule="evenodd" stroke-width="28.222" stroke-linejoin="round" xmlns="http://www.w3.org/2000/svg" xmlns:ooo="http://xml.openoffice.org/svg/export" xmlns:xlink="http://www.w3.org/1999/xlink" xmlns:presentation="http://sun.com/xmlns/staroffice/presentation" xmlns:smil="http://www.w3.org/2001/SMIL20/" xmlns:anim="urn:oasis:names:tc:opendocument:xmlns:animation:1.0" xml:space="preserve">
 <defs class="EmbeddedBulletChars">
  <g id="bullet-char-template-57356" transform="scale(0.00048828125,-0.00048828125)">
   <path d="M 580,1141 L 1163,571 580,0 -4,571 580,1141 Z"/>
  </g>
  <g id="bullet-char-template-57354" transform="scale(0.00048828125,-0.00048828125)">
   <path d="M 8,1128 L 1137,1128 1137,0 8,0 8,1128 Z"/>
  </g>
  <g id="bullet-char-template-10146" transform="scale(0.00048828125,-0.00048828125)">
   <path d="M 174,0 L 602,739 174,1481 1456,739 174,0 Z M 1358,739 L 309,1346 659,739 1358,739 Z"/>
  </g>
  <g id="bullet-char-template-10132" transform="scale(0.00048828125,-0.00048828125)">
   <path d="M 2015,739 L 1276,0 717,0 1260,543 174,543 174,936 1260,936 717,1481 1274,1481 2015,739 Z"/>
  </g>
  <g id="bullet-char-template-10007" transform="scale(0.00048828125,-0.00048828125)">
   <path d="M 0,-2 C -7,14 -16,27 -25,37 L 356,567 C 262,823 215,952 215,954 215,979 228,992 255,992 264,992 276,990 289,987 310,991 331,999 354,1012 L 381,999 492,748 772,1049 836,1024 860,1049 C 881,1039 901,1025 922,1006 886,937 835,863 770,784 769,783 710,716 594,584 L 774,223 C 774,196 753,168 711,139 L 727,119 C 717,90 699,76 672,76 641,76 570,178 457,381 L 164,-76 C 142,-110 111,-127 72,-127 30,-127 9,-110 8,-76 1,-67 -2,-52 -2,-32 -2,-23 -1,-13 0,-2 Z"/>
  </g>
  <g id="bullet-char-template-10004" transform="scale(0.00048828125,-0.00048828125)">
   <path d="M 285,-33 C 182,-33 111,30 74,156 52,228 41,333 41,471 41,549 55,616 82,672 116,743 169,778 240,778 293,778 328,747 346,684 L 369,508 C 377,444 397,411 428,410 L 1163,1116 C 1174,1127 1196,1133 1229,1133 1271,1133 1292,1118 1292,1087 L 1292,965 C 1292,929 1282,901 1262,881 L 442,47 C 390,-6 338,-33 285,-33 Z"/>
  </g>
  <g id="bullet-char-template-9679" transform="scale(0.00048828125,-0.00048828125)">
   <path d="M 813,0 C 632,0 489,54 383,161 276,268 223,411 223,592 223,773 276,916 383,1023 489,1130 632,1184 813,1184 992,1184 1136,1130 1245,1023 1353,916 1407,772 1407,592 1407,412 1353,268 1245,161 1136,54 992,0 813,0 Z"/>
  </g>
  <g id="bullet-char-template-8226" transform="scale(0.00048828125,-0.00048828125)">
   <path d="M 346,457 C 273,457 209,483 155,535 101,586 74,649 74,723 74,796 101,859 155,911 209,963 273,989 346,989 419,989 480,963 531,910 582,859 608,796 608,723 608,648 583,586 532,535 482,483 420,457 346,457 Z"/>
  </g>
  <g id="bullet-char-template-8211" transform="scale(0.00048828125,-0.00048828125)">
   <path d="M -4,459 L 1135,459 1135,606 -4,606 -4,459 Z"/>
  </g>
  <g id="bullet-char-template-61548" transform="scale(0.00048828125,-0.00048828125)">
   <path d="M 173,740 C 173,903 231,1043 346,1159 462,1274 601,1332 765,1332 928,1332 1067,1274 1183,1159 1299,1043 1357,903 1357,740 1357,577 1299,437 1183,322 1067,206 928,148 765,148 601,148 462,206 346,322 231,437 173,577 173,740 Z"/>
  </g>
 </defs>
 <g class="Page">
  <g class="Group">
   <g class="com.sun.star.drawing.PolyPolygonShape">
    <g id="id3">
     <rect class="BoundingBox" stroke="none" fill="none" x="5799" y="2699" width="7103" height="1603"/>
     <path fill="rgb(0,0,0)" stroke="none" d="M 5800,4300 L 5800,2700 12900,2700 12900,4300 5800,4300 Z"/>
     <path fill="none" stroke="rgb(0,0,0)" d="M 5800,4300 L 5800,2700 12900,2700 12900,4300 5800,4300 Z"/>
    </g>
   </g>
   <g class="com.sun.star.drawing.PolyPolygonShape">
    <g id="id4">
     <rect class="BoundingBox" stroke="none" fill="none" x="9299" y="4299" width="3103" height="1703"/>
     <path fill="rgb(0,0,0)" stroke="none" d="M 9300,6000 L 9300,4300 12400,4300 12400,6000 9300,6000 Z"/>
     <path fill="none" stroke="rgb(0,0,0)" d="M 9300,6000 L 9300,4300 12400,4300 12400,6000 9300,6000 Z"/>
    </g>
   </g>
   <g class="Group">
    <g class="com.sun.star.drawing.ClosedBezierShape">
     <g id="id5">
      <rect class="BoundingBox" stroke="none" fill="none" x="999" y="999" width="5003" height="5003"/>
      <path fill="rgb(201,33,30)" stroke="none" d="M 6001,3501 C 6001,3939 5885,4371 5666,4751 5447,5131 5131,5447 4751,5666 4371,5885 3939,6001 3501,6001 3062,6001 2630,5885 2250,5666 1870,5447 1554,5131 1335,4751 1116,4371 1000,3939 1000,3501 1000,3062 1116,2630 1335,2250 1554,1870 1870,1554 2250,1335 2630,1116 3062,1000 3500,1000 3939,1000 4371,1116 4751,1335 5131,1554 5447,1870 5666,2250 5885,2630 6001,3062 6001,3500 L 6001,3501 Z M 4751,3501 C 4751,3720 4693,3936 4583,4126 4474,4316 4316,4474 4126,4583 3936,4693 3720,4751 3501,4751 3281,4751 3065,4693 2875,4583 2685,4474 2527,4316 2418,4126 2308,3936 2250,3720 2250,3501 2250,3281 2308,3065 2418,2875 2527,2685 2685,2527 2875,2418 3065,2308 3281,2250 3500,2250 3720,2250 3936,2308 4126,2418 4316,2527 4474,2685 4583,2875 4693,3065 4751,3281 4751,3500 L 4751,3501 Z"/>
     </g>
    </g>
    <g class="com.sun.star.drawing.OpenBezierShape">
     <g id="id6">
      <rect class="BoundingBox" stroke="none" fill="none" x="999" y="999" width="5004" height="5004"/>
      <path fill="none" stroke="rgb(52,101,164)" d="M 6001,3501 C 6001,3939 5885,4371 5666,4751 5447,5131 5131,5447 4751,5666 4371,5885 3939,6001 3501,6001 3062,6001 2630,5885 2250,5666 1870,5447 1554,5131 1335,4751 1116,4371 1000,3939 1000,3501 1000,3062 1116,2630 1335,2250 1554,1870 1870,1554 2250,1335 2630,1116 3062,1000 3500,1000 3939,1000 4371,1116 4751,1335 5131,1554 5447,1870 5666,2250 5885,2630 6001,3062 6001,3500 L 6001,3501 Z"/>
      <path fill="none" stroke="rgb(52,101,164)" d="M 4751,3501 C 4751,3720 4693,3936 4583,4126 4474,4316 4316,4474 4126,4583 3936,4693 3720,4751 3501,4751 3281,4751 3065,4693 2875,4583 2685,4474 2527,4316 2418,4126 2308,3936 2250,3720 2250,3501 2250,3281 2308,3065 2418,2875 2527,2685 2685,2527 2875,2418 3065,2308 3281,2250 3500,2250 3720,2250 3936,2308 4126,2418 4316,2527 4474,2685 4583,2875 4693,3065 4751,3281 4751,3500"/>
     </g>
    </g>
   </g>
  </g>
 </g>
</svg>