<?xml version="1.0" encoding="UTF-8" standalone="no"?>
<!-- Created with Inkscape (http://www.inkscape.org/) -->

<svg
   xmlns:dc="http://purl.org/dc/elements/1.1/"
   xmlns:cc="http://creativecommons.org/ns#"
   xmlns:rdf="http://www.w3.org/1999/02/22-rdf-syntax-ns#"
   xmlns:svg="http://www.w3.org/2000/svg"
   xmlns="http://www.w3.org/2000/svg"
   xmlns:xlink="http://www.w3.org/1999/xlink"
   xmlns:sodipodi="http://sodipodi.sourceforge.net/DTD/sodipodi-0.dtd"
   xmlns:inkscape="http://www.inkscape.org/namespaces/inkscape"
   version="1.0"
   viewBox="-10 -10 810 330"
   width="820"
   height="340"
   id="svg1"
   xml:space="preserve"
   sodipodi:docname="Router.svg"
   inkscape:version="0.92.4 (5da689c313, 2019-01-14)"><metadata
   id="metadata82"><rdf:RDF><cc:Work
       rdf:about=""><dc:format>image/svg+xml</dc:format><dc:type
         rdf:resource="http://purl.org/dc/dcmitype/StillImage" /></cc:Work></rdf:RDF></metadata><sodipodi:namedview
   pagecolor="#ffffff"
   bordercolor="#666666"
   borderopacity="1"
   objecttolerance="10"
   gridtolerance="10"
   guidetolerance="10"
   inkscape:pageopacity="0"
   inkscape:pageshadow="2"
   inkscape:window-width="1920"
   inkscape:window-height="1015"
   id="namedview80"
   showgrid="false"
   inkscape:zoom="1.2593235"
   inkscape:cx="518.79579"
   inkscape:cy="288.53193"
   inkscape:window-x="0"
   inkscape:window-y="0"
   inkscape:window-maximized="1"
   inkscape:current-layer="switch" />

    <style>
    .JACK {
        fill: rgb(192,192,192);
        stroke: white;
    }
    
    .LAN { 
        fill: yellow;
        stroke: white;
    }
    .WAN { 
        fill: blue;
        stroke: white;
    }
     
    </style>

<defs
   id="Definitionen">

<g
   id="rj45jackx2">
    <rect
   id="rj45jack1"
   x="0"
   y="0"
   width="40"
   height="40"
   rx="2"
   ry="2" />
    <rect
   id="rj45jack2"
   x="0"
   y="60"
   width="40"
   height="40"
   rx="2"
   ry="2" />
</g>

</defs>


<g
   id="switch">
    <g
   id="g69"
   transform="translate(0,100)">
        <rect
   id="front"
   x="0"
   y="0"
   width="550"
   height="120"
   rx="0"
   ry="0"
   style="fill:rgb(64,64,64);stroke:blue;stroke-width:2" />
        <g
            id="rj45panel"
            class="LAN"
    transform="translate(120,10)">
            <use
   xlink:href="#rj45jackx2"
   id="use48"
   x="0"
   y="0"
   width="100%"
   height="100%" />
            <use
   xlink:href="#rj45jackx2"
   transform="translate(50)"
   id="use50"
   x="0"
   y="0"
   width="100%"
   height="100%" />
            <use
   xlink:href="#rj45jackx2"
   transform="translate(100)"
   id="use52"
   x="0"
   y="0"
   width="100%"
   height="100%" />
            <use
   xlink:href="#rj45jackx2"
   transform="translate(150)"
   id="use54"
   x="0"
   y="0"
   width="100%"
   height="100%" />
            <use
   xlink:href="#rj45jackx2"
   transform="translate(200)"
   id="use56"
   x="0"
   y="0"
   width="100%"
   height="100%" />
            <use
   xlink:href="#rj45jackx2"
   transform="translate(250)"
   id="use58"
   x="0"
   y="0"
   width="100%"
   height="100%" />
            <use
   xlink:href="#rj45jackx2"
   transform="translate(300)"
   id="use60"
   x="0"
   y="0"
   width="100%"
   height="100%" />
            <use
   xlink:href="#rj45jackx2"
   transform="translate(350)"
    class="WAN"
   id="use62"
   x="0"
   y="0"
   width="100%"
   height="100%" />
        </g>
    
        <circle
   cx="60"
   cy="60"
   r="40"
   id="circle65"
   style="fill:green;stroke:black" />
        <circle
   cx="60"
   cy="60"
   r="25"
   id="circle67"
   style="fill:#90ee90;stroke:black" />
	</g>
    
	<g
   id="case"
   style="fill:#a9a9a9;stroke:black;stroke-width:2">
        <path
   d="m 0,100 l 200,-100 h 550 l -200,100 z"
   id="path71"
   inkscape:connector-curvature="0" />
        <path
   d="m 550,100 l 200,-100 v 120 l -200,100 z"
   id="path73"
   inkscape:connector-curvature="0" /> 
        <text
   x="161.1944"
   y="99.123138"
   id="text75"
   style="font-style:normal;font-variant:normal;font-weight:normal;font-stretch:normal;font-size:108.47356415px;font-family:sans-serif;-inkscape-font-specification:'sans-serif, Normal';font-variant-ligatures:normal;font-variant-caps:normal;font-variant-numeric:normal;font-feature-settings:normal;text-align:start;writing-mode:lr-tb;text-anchor:start;fill:white;stroke:white;stroke-width:1.32284832"
   transform="matrix(1.320868,0,-1.320868,0.75707793,0,0)">Router</text>

	
	<g
   transform="matrix(0.02401143,-0.01231752,0,0.02133457,569.85194,77.090489)"
   class="Page"
   id="g43"><g
     
     id="g41"><g
       id="id3"><path
         d="m 1000,3500 l 995,-996 v 487 h 996 v -996 h -487 l 996,-995 l 996,995 h -487 v 996 h 996 v -487 l 996,996 l -996,996 v -487 h -996 v 996 h 487 l -996,996 l -996,-996 h 487 v -996 h -996 v 487 z"
         id="path36"
         inkscape:connector-curvature="0"
         style="fill:#2568cf;fill-opacity:1;stroke:black;stroke-width:0;stroke-miterlimit:4;stroke-dasharray:none;stroke-opacity:1" />
            </g>
        </g>
    </g>
  </g>
</g>

</svg>
