<?xml version="1.0" encoding="UTF-8"?>


<svg version="1.2" baseProfile="tiny" 
	width="210mm" height="297mm" 
	viewBox="0 0 210 297" 
	preserveAspectRatio="xMidYMid"
	fill="none"
	fill-rule="evenodd"
	stroke="black"
	stroke-width="1"
	
	stroke-linejoin="round"
	xmlns="http://www.w3.org/2000/svg"
	xmlns:ooo="http://xml.openoffice.org/svg/export"
	xmlns:xlink="http://www.w3.org/1999/xlink"
	xml:space="preserve">

<style>

.breite {

stroke-dasharray: 5 1 ;

}

.polar {

stroke: blue ;

}

#b0 {

stroke: green;

}

</style>

<g transform="rotate(203.5 100 100)">
<g>
	<circle cx="100" cy="100" r="100" />

	<circle stroke-width="0.5" cx="100" cy="191.70600744" r="1" />
<ellipse class="polar br67" cx="100" cy="184.099918003125" rx="39.8749068925246" ry="15.9000819968751" />
<ellipse class="breite br80" cx="100" cy="190.312787123242" rx="17.364817766693" ry="6.92420491652542" />
<ellipse class="breite br70" cx="100" cy="186.175458471708" rx="34.2020143325669" ry="13.638021370479" />
<path class="breite" id="b60" d="M 67.105676943335 194.434969744495 A 50 19.9374534462623 0 1 1 132.894323056665 194.434969744495" />
<path class="breite" id="b50" d="M 45.0245607734219 183.532634831213 A 64.2787609686539 25.6310960879192 0 1 1 154.975439226578 183.532634831213" />
<path class="breite" id="b40" d="M 28.6762096656863 170.092203078137 A 76.6044443118978 30.5459508449051 0 1 1 171.323790334314 170.092203078137" />
<path class="breite" id="b30" d="M 16.170736037753 154.522055202898 A 86.6025403784439 34.5326823424655 0 1 1 183.829263962247 154.522055202898" />
<path class="breite" id="b20" d="M 7.21496930854011 137.295282269811 A 93.9692620785909 37.4701557614305 0 1 1 192.78503069146 137.295282269811" />
<path class="breite" id="b10" d="M 1.80909413207293 118.935311057278 A 98.4807753012208 39.2691174583982 0 1 1 198.190905867927 118.935311057278" />
<path class="breite" id="b0" d="M 0 100 A 100 39.8749068925246 0 1 1 200 100" />
<path class="breite" id="b-10" d="M 198.190905867927 81.0646889427217 A 98.4807753012208 39.2691174583982 0 0 0 1.80909413207293 81.0646889427217" />
<path class="breite" id="b-20" d="M 192.78503069146 62.7047177301895 A 93.9692620785909 37.4701557614305 0 0 0 7.21496930854011 62.7047177301895" />
<path class="breite" id="b-30" d="M 183.829263962247 45.4779447971015 A 86.6025403784439 34.5326823424655 0 0 0 16.170736037753 45.4779447971015" />
<path class="breite" id="b-40" d="M 171.323790334314 29.9077969218626 A 76.6044443118978 30.5459508449051 0 0 0 28.6762096656863 29.9077969218626" />
<path class="breite" id="b-50" d="M 154.975439226578 16.4673651687867 A 64.2787609686539 25.6310960879192 0 0 0 45.0245607734219 16.4673651687867" />
<path class="breite" id="b-60" d="M 132.894323056665 5.56503025550464 A 50 19.9374534462623 0 0 0 67.105676943335 5.56503025550464" />

</g>
</g>
</svg>
