<?xml version="1.0" encoding="UTF-8" standalone="no"?>
<!-- Created with Inkscape (http://www.inkscape.org/) -->

<svg
   xmlns:dc="http://purl.org/dc/elements/1.1/"
   xmlns:cc="http://creativecommons.org/ns#"
   xmlns:rdf="http://www.w3.org/1999/02/22-rdf-syntax-ns#"
   xmlns:svg="http://www.w3.org/2000/svg"
   xmlns="http://www.w3.org/2000/svg"
   xmlns:xlink="http://www.w3.org/1999/xlink"
   xmlns:sodipodi="http://sodipodi.sourceforge.net/DTD/sodipodi-0.dtd"
   xmlns:inkscape="http://www.inkscape.org/namespaces/inkscape"
   version="1.0"
   viewBox="0 0 1602 2002"
   width="1602px"
   height="2002px"
   fill="none"
   stroke="black"
   stroke-width="2"
   id="svg1"
   inkscape:version="0.92.4 (5da689c313, 2019-01-14)"
   sodipodi:docname="Friese.svg">
  <title
     id="title855">Wilhelmshavener Friese</title>
  <defs
     id="defs25" />
  <sodipodi:namedview
     pagecolor="#ffffff"
     bordercolor="#666666"
     borderopacity="1"
     objecttolerance="10"
     gridtolerance="10"
     guidetolerance="10"
     inkscape:pageopacity="0"
     inkscape:pageshadow="2"
     inkscape:window-width="1920"
     inkscape:window-height="1015"
     id="namedview23"
     showgrid="false"
     inkscape:zoom="0.94305694"
     inkscape:cx="933.52683"
     inkscape:cy="1421.9955"
     inkscape:window-x="0"
     inkscape:window-y="0"
     inkscape:window-maximized="1"
     inkscape:current-layer="svg1" />
  <metadata
     id="metadata20">
    <rdf:RDF>
      <cc:Work
         rdf:about="Thomas Arend, Wappen">
        <dc:format>image/svg+xml</dc:format>
        <dc:type
           rdf:resource="http://purl.org/dc/dcmitype/StillImage" />
        <dc:title>Wilhelmshavener Friese</dc:title>
        <dc:source>https://upload.wikimedia.org/wikipedia/commons/1/1a/DEU_Wilhelmshaven_COA.svg</dc:source>
        <dc:description>Entnommen dem Stadtwappen von Wilhemshaven. SVG von Jürgen Krause
Bernhard Winter - Neugestaltung durch Georg Emil Baumann für die Stadt Wilhelmshaven</dc:description>
        <dc:contributor>
          <cc:Agent>
            <dc:title>modifiziert Thomas Arend, Barfüssiger Friese</dc:title>
          </cc:Agent>
        </dc:contributor>
        <dc:date>18.10.2019</dc:date>
        <dc:subject>
          <rdf:Bag>
            <rdf:li>Wilhelmshaven Friese</rdf:li>
          </rdf:Bag>
        </dc:subject>
        <dc:rights>
          <cc:Agent>
            <dc:title>Public Domain</dc:title>
          </cc:Agent>
        </dc:rights>
        <cc:license
           rdf:resource="http://creativecommons.org/publicdomain/zero/1.0/" />
      </cc:Work>
      <cc:License
         rdf:about="http://creativecommons.org/publicdomain/zero/1.0/">
        <cc:permits
           rdf:resource="http://creativecommons.org/ns#Reproduction" />
        <cc:permits
           rdf:resource="http://creativecommons.org/ns#Distribution" />
        <cc:permits
           rdf:resource="http://creativecommons.org/ns#DerivativeWorks" />
      </cc:License>
    </rdf:RDF>
  </metadata>
  <style
     id="style1">
    .gitter {
        fill:#FFFF00;
        fill-opacity:1;
        fill-rule:evenodd;
        stroke:#0000ff;
        stroke-width:5;
        stroke-linecap:butt;
        stroke-linejoin:miter;
        stroke-opacity:1;
    }
        
    .schild {
        fill:#DA121A;
        fill-opacity:1;
        fill-rule:evenodd;
        stroke:black;
        stroke-width:5;
        stroke-linecap:butt;
        stroke-linejoin:miter;
        stroke-miterlimit:4;
        stroke-opacity:1;
    }
    .blau {
        fill:#0047AB;
        fill-opacity:1;
        fill-rule:evenodd;
        stroke:black;
        stroke-width:5;
        stroke-linecap:butt;
        stroke-linejoin:miter;
        stroke-miterlimit:4;
        stroke-opacity:1;
    }

    .gold {
        fill:#FFF200;
        fill-opacity:1;
        fill-rule:evenodd;
        stroke:black;
        stroke-width:5;
        stroke-linecap:butt;
        stroke-linejoin:miter;
        stroke-miterlimit:4;
        stroke-opacity:1;
    }
    
    .arm {
        fill:#00FFFF;
        fill-opacity:1;
        fill-rule:evenodd;
        stroke:black;
        stroke-width:2;
        stroke-linecap:square;
        stroke-linejoin:round;
        stroke-miterlimit:4;
        stroke-opacity:1;
    }

      .arm1 {
        fill:#FFF200;
        fill-opacity:1;
        fill-rule:evenodd;
        stroke:black;
        stroke-width:2;
        stroke-linecap:square;
        stroke-linejoin:round;
        stroke-miterlimit:4;
        stroke-opacity:1;
    }
      .arm2 {
        fill:#BBB100;
        fill-opacity:1;
        fill-rule:evenodd;
        stroke: black;
        stroke-width:2;
        stroke-linecap:square;
        stroke-linejoin:round;
        stroke-miterlimit:4;
        stroke-opacity:1;
    }
 
    .linie {
        fill:none;
        stroke:#000000;
        stroke-width:2;
        stroke-linecap:round;
        stroke-linejoin:round;
        stroke-miterlimit:4;
        stroke-dasharray:none;
    }
    
    .haut {
        fill:#f2a772;
        stroke:#000000;
        stroke-width:2;
        stroke-linecap:round;
        stroke-linejoin:round;
        stroke-miterlimit:4;
        stroke-dasharray:none;
    }
    
    .haar {
         fill:#da121a;
         stroke:#000000;
         stroke-width:2;
         stroke-linecap:round;
         stroke-linejoin:round;
         stroke-miterlimit:4;
         stroke-dasharray:none;
    }
    .kleidung {
         fill:#da121a;
         stroke:#000000;
         stroke-width:2;
         stroke-linecap:round;
         stroke-linejoin:round;
         stroke-miterlimit:4;
         stroke-dasharray:none;
    }
    .lance {
         fill:#da121a;
         stroke:#000000;
         stroke-width:2;
         stroke-linecap:round;
         stroke-linejoin:round;
         stroke-miterlimit:4;
         stroke-dasharray:none;
    }
    .schild {
         fill:#da121a;
         stroke:#000000;
         stroke-width:2;
         stroke-linecap:round;
         stroke-linejoin:round;
         stroke-miterlimit:4;
         stroke-dasharray:none;
    }

    .guertel {
         fill:#fcdd09;
         stroke:#000000;
         stroke-width:2;
         stroke-linecap:round;
         stroke-linejoin:round;
         stroke-miterlimit:4;
         stroke-dasharray:none;
    }

    .schildzier {
         fill:#fcdd09;
         stroke:#000000;
         stroke-width:2;
         stroke-linecap:round;
         stroke-linejoin:round;
         stroke-miterlimit:4;
         stroke-dasharray:none;
    }
    .fuss {
        fill:#fff200;
        fill-opacity:1;
        stroke:black;
        stroke-width:2.0
    }

    </style>
  <path
     class="lance"
     d="m 228.70381,494.00106 c 23.10314,7.73742 46.20628,5.67711 69.30942,3.72631 l 22.86197,24.17911 c 12.32963,-10.70794 17.70446,-5.72958 18.12777,9.35751 l 290.65243,120.73255 l -22.35788,20.86735 l -279.16346,-121.04257 c -8.7315,14.35077 -15.42693,13.28356 -18.19633,-4.16155 l -44.71576,-8.94315 c -3.1301,-17.48982 -19.80312,-31.10726 -36.51787,-44.71576 z"
     id="frieselance-1"
     inkscape:connector-curvature="0"
     style="fill:#da121a;stroke:black;stroke-width:5.96210098;stroke-linecap:round;stroke-linejoin:round;stroke-miterlimit:4;stroke-dasharray:none" />
  <path
     class="haut"
     d="m 501.46993,729.86178 c 7.99905,2.71216 16.37819,3.90438 25.77535,1.02289 c 11.15986,31.44711 19.53661,62.89421 19.46716,94.33833 c -23.74318,0.1252 -45.93501,-15.41442 -66.98421,-28.75641 c 2.74078,-15.7316 2.83834,-43.1984 21.7405,-66.60561 z"
     id="friesearmlinks"
     inkscape:connector-curvature="0"
     style="fill:#f2a772;stroke:black;stroke-width:5.96210098;stroke-linecap:round;stroke-linejoin:round;stroke-miterlimit:4;stroke-dasharray:none" />
  <ellipse
     style="opacity:1;fill:#da121a;fill-opacity:1;stroke:#040000;stroke-width:6.01424599;stroke-miterlimit:4;stroke-dasharray:none;stroke-opacity:1"
     id="path851"
     cx="351.8895"
     cy="718.98053"
     rx="147.88239"
     ry="147.88237" />
  <circle
     style="opacity:1;fill:none;fill-opacity:1;stroke:black;stroke-width:6.486166;stroke-miterlimit:4;stroke-dasharray:none;stroke-opacity:1"
     id="path853"
     cx="351.8895"
     cy="718.98053"
     r="138.23392" />
  <path
     class="haut"
     d="m 799.39611,327.37743 c -44.14935,37.55229 -44.80519,61.44243 -78.19295,96.62777 c -6.31536,6.01715 -4.84928,14.22438 12.6003,12.92107 c 0.32625,6.15586 -7.09013,14.82078 7.5045,16.35285 c -13.54888,2.34072 -4.61675,11.85762 -10.73596,21.49059 c -11.14197,17.53911 5.30359,23.44238 12.17551,23.43086 l 23.15531,-0.0398 l -1.86954,23.72201 l 105.13867,2.4697 c -4.91873,-64.69774 -2.71275,-162.12145 -69.78639,-196.9759 z"
     id="friesegesicht"
     inkscape:connector-curvature="0"
     style="fill:#f2a772;stroke:black;stroke-width:5.96210098;stroke-linecap:round;stroke-linejoin:round;stroke-miterlimit:4;stroke-dasharray:none" />
  <path
     class="haar"
     d="m 786.07082,331.46147 c 24.60708,-12.90835 65.08825,-5.53323 91.75971,-4.71463 c 6.66027,3.1295 2.33822,5.89353 0.68123,10.40923 c 26.83721,5.41359 49.95943,36.00513 64.82295,39.31111 c 18.28695,8.51905 46.27186,53.25945 -4.27125,19.85062 c 33.665,13.62519 44.47429,56.21963 5.3319,22.99066 c 24.41481,10.07157 19.71608,55.29848 0.27515,18.52067 c 20.08781,37.96367 -5.2687,39.69865 -17.72204,15.30709 c 5.98923,25.21234 3.05408,35.48643 -2.47427,36.45825 c -18.35284,3.23305 -19.15057,-24.8717 -33.86176,-36.6222 c 38.68509,54.8871 -10.06074,57.99633 -18.185,23.15501 c 0.0942,56.40147 -20.59578,0.57315 -40.6973,-8.11641 c 22.3069,-3.72929 30.43354,-45.46996 4.97954,-40.77183 l -12.63965,-30.48422 c -5.65476,-16.96456 -17.32467,-44.53093 12.56185,-45.88433 c -13.73489,-4.84401 -44.40275,3.33182 -50.55862,-19.40544 z"
     id="friesehaar"
     inkscape:connector-curvature="0"
     style="fill:#da121a;stroke:black;stroke-width:5.96210098;stroke-linecap:round;stroke-linejoin:round;stroke-miterlimit:4;stroke-dasharray:none" />
  <path
     class="lance"
     d="m 916.58121,769.74823 l 427.03549,185.5704 c 2.9954,-9.17826 9.2377,-14.04493 20.1445,10.37226 c 9.3659,-12.3012 20.6667,-14.59184 33.513,-8.88174 c -6.1457,10.93072 -14.2393,21.86104 0.7453,32.79156 c -19.5786,1.81665 -19.1251,15.65249 -19.3769,29.06519 c -26.8393,-7.9021 -31.3189,-19.15857 -18.425,-33.02105 c -16.1871,7.42282 -20.1817,-2.2656 -27.0382,-7.9594 l -425.54492,-178.11777 c 4.99087,-5.91679 9.78947,-12.21873 8.94315,-29.81051 z"
     id="frieselance-2"
     inkscape:connector-curvature="0"
     style="fill:#da121a;stroke:black;stroke-width:5.96210098;stroke-linecap:round;stroke-linejoin:round;stroke-miterlimit:4;stroke-dasharray:none" />
  <path
     class="haut"
     d="m 1102.1516,777.20086 c 39.1978,13.03554 89.6879,80.28863 147.562,88.68625 c 21.454,3.11341 27.8333,51.85537 23.8484,73.03574 c -5.1316,27.27422 -42.3637,17.42642 -58.8757,12.66946 c -12.1973,-3.51386 -9.6974,-31.0059 -37.1618,-52.98817 c -28.1083,-22.49938 -50.1443,-39.44526 -86.5518,-53.58438 c 7.013,-16.96933 8.1333,-38.94743 11.1789,-67.8189 z"
     id="friesearmrechts"
     inkscape:connector-curvature="0"
     style="fill:#f2a772;stroke:black;stroke-width:5.96210098;stroke-linecap:round;stroke-linejoin:round;stroke-miterlimit:4;stroke-dasharray:none" />
  <path
     sodipodi:nodetypes="cccccccccccccccccccccccccccccccccccccccccccccccccccccccccccc"
     class="kleidung"
     d="m 868.82478,522.89042 c 12.13705,17.15177 23.44477,22.39842 36.83982,46.98136 c 39.92223,19.79298 70.18287,43.61277 59.96979,84.29516 c -4.61913,-46.50439 34.89921,6.05929 39.54961,20.70558 c 7.2976,-4.81022 26.9466,36.20486 47.9562,45.85452 c 16.7876,7.71039 24.4684,20.30096 41.5677,35.26285 c 10.1296,8.86207 13.2788,14.16973 1.581,78.69675 c -11.6247,18.08126 -20.2581,40.15773 -42.79,23.71426 c -27.2695,-19.90249 -58.46441,-35.35526 -72.7794,-59.27521 c 3.48364,-19.99907 17.72265,-25.10641 39.4602,-19.82876 c -36.58945,-4.27343 -73.29214,-9.96147 -86.50417,-38.98617 c -4.76492,14.49585 -3.1128,50.72555 -16.80478,23.13474 c -0.39555,13.59239 -0.88744,30.06985 -9.44457,35.50133 c -0.27721,17.18098 -0.6349,33.49508 -7.7239,39.77615 c 3.55163,26.41688 1.84444,30.32027 31.22949,39.03984 c 43.01954,26.88033 69.22003,100.34514 125.01933,152.83248 c 21.2173,19.9576 60.411,48.2424 86.3938,64.7425 c 21.1257,13.4159 22.2263,29.6841 10.7463,34.3417 c 21.863,13.7357 18.0324,29.798 3.8012,36.6818 l 53.9958,41.526 c 3.488,-3.0846 -0.6258,-14.8569 11.609,-7.9451 c 11.6831,9.6207 42.635,35.8263 10.39,69.6493 c -14.4921,15.2016 -50.3708,11.4133 -69.068,-10.9444 c 0.4984,-9.5096 6.1441,-5.7787 10.5162,-6.2497 l -70.5615,-52.7944 c -35.6862,30.9612 -51.605,42.6618 -90.758,12.0895 c 4.7789,11.1152 -4.691,13.0314 -7.7832,18.6096 c -13.77011,24.8414 35.7517,25.0044 55.5042,32.2877 c 75.2804,33.4325 113.9983,84.5545 164.2737,142.9146 c 11.0925,21.0493 7.7196,64.5663 -27.7714,63.0867 c -46.5223,-34.3923 -93.0446,-60.4914 -139.5669,-76.6189 c -41.8897,-13.32 -52.3949,-34.8396 -70.31104,-41.3353 c -29.99533,-10.8733 -49.60468,2.1273 -77.88292,-16.7207 c -12.15851,-8.1033 -13.13063,-19.8993 -22.07707,-32.8005 c -10.46408,-15.0885 -29.37109,-27.5266 -54.70823,-51.5125 c -21.68059,-6.4296 -56.50582,9.4062 -68.56417,-31.2414 c -28.53908,39.2902 -68.94573,48.8176 -108.56687,93.6318 c -11.23618,12.7082 37.62383,83.21 20.86735,151.4761 c -7.91439,32.243 -6.41939,81.6688 -10.34335,116.3087 c -9.07825,9.8249 -48.61617,23.9434 -68.06812,1.0864 c -4.63911,-74.4577 -34.00782,-152.7281 -48.90115,-211.7171 c -10.17224,-40.2889 -21.84812,-79.0843 -15.25135,-112.2098 c 3.37514,-16.9484 50.30821,-62.3606 77.85311,-97.2597 c -2.54446,-25.3384 29.38183,-64.1582 67.52676,-105.407 c 6.2769,-44.5876 2.5293,-84.76019 6.21847,-121.40923 c 2.67953,-26.6178 9.78142,-29.72286 8.25036,-68.48367 c -4.79949,18.91079 -21.01909,21.23879 -30.55577,5.21684 c -6.34994,-10.66799 1.88951,-34.85146 28.31998,-34.28208 l -11.23856,-76.01679 c -18.43661,11.22008 -22.64168,2.1086 -27.57472,-5.9621 c 5.7105,27.91575 -7.56143,35.62952 -20.46759,49.55698 c -14.42173,15.56486 -31.17881,35.7428 -32.63356,9.92869 c -11.68572,51.21445 -32.10592,55.80527 -53.45024,12.07326 c -10.72284,-31.44114 -15.32558,-62.88228 -19.12105,-94.32342 c -3.44908,-7.12173 9.62372,-10.5726 21.45164,-10.41083 c 3.58054,-6.20972 11.31934,-7.13186 19.87526,-13.6701 c 45.41928,-34.71135 73.50972,-79.66857 88.48652,-46.73989 c -20.05889,-26.00768 6.13858,-61.60043 25.46026,-69.34222 c 24.49052,-48.84153 44.64719,-39.04281 79.22141,-68.16172 z"
     id="friesekleidung"
     inkscape:connector-curvature="0"
     style="fill:#da121a;stroke:black;stroke-width:5.96210098;stroke-linecap:round;stroke-linejoin:round;stroke-miterlimit:4;stroke-dasharray:none" />
  <path
     class="schildzier"
     d="m 351.38596,650.11868 c -39.22765,0 -70.78207,31.78396 -70.78207,70.41837 c 0,38.6374 31.55442,70.41838 70.78207,70.41838 c 39.22764,0 70.78206,-31.78397 70.78206,-70.41838 c 0,-38.6374 -31.55442,-70.41837 -70.78206,-70.41837 z m 0,14.47876 c 30.55875,0 55.5787,24.79061 55.5787,55.93941 c 0,31.1486 -25.01876,55.93941 -55.5787,55.93941 c -30.55994,0 -55.57871,-24.79081 -55.57871,-55.93941 c 0,-31.1488 25.01877,-55.93941 55.57871,-55.93941 z"
     id="frieseschildzierring"
     inkscape:connector-curvature="0"
     style="fill:#fcdd09;stroke:black;stroke-width:5.96210098;stroke-linecap:round;stroke-linejoin:round;stroke-miterlimit:4;stroke-dasharray:none" />
  <path
     class="schildzier"
     id="frieseschildzierstern"
     d="m 278.27464,690.63811 c -2.98455,6.09644 -12.94251,-3.27737 -19.36365,-1.07676 c -6.42114,2.20041 -8.53678,15.71133 -14.63324,12.7271 c -6.09655,-2.98463 3.27721,-12.94253 1.07675,-19.36371 c -2.20045,-6.42118 -15.71141,-8.53674 -12.7271,-14.63318 c 2.98455,-6.09665 12.94251,3.27716 19.36366,1.07675 c 6.42114,-2.20061 8.53677,-15.71153 14.63324,-12.7271 c 6.09654,2.98443 -3.27721,12.94253 -1.07676,19.36352 c 2.20045,6.42118 15.71141,8.53693 12.7271,14.63338 z"
     inkscape:connector-curvature="0"
     style="fill:#fcdd09;stroke:black;stroke-width:5.96210098;stroke-linecap:round;stroke-linejoin:round;stroke-miterlimit:4;stroke-dasharray:none" />
  <use
     xlink:href="#frieseschildzierstern"
     transform="translate(47.955221,133.32595)"
     height="492"
     width="402"
     y="0"
     x="0"
     id="use27-9" />
  <use
     xlink:href="#frieseschildzierstern"
     transform="translate(192.65454,79.574029)"
     height="492"
     width="402"
     y="0"
     x="0"
     id="use29-3" />
  <use
     xlink:href="#frieseschildzierstern"
     transform="translate(143.42517,-52.697964)"
     height="492"
     width="402"
     y="0"
     x="0"
     id="use31-6" />
  <path
     class="guertel"
     d="m 693.38996,869.64323 c 15.11184,23.74268 39.2962,36.83088 66.99911,45.34774 l 13.47435,34.37152 c 12.29683,-19.43069 24.59366,-34.7352 36.8905,-48.22446 l 19.77599,14.90526 c 2.87528,17.37276 5.94749,34.25227 10.77977,46.73392 c -20.94575,-0.0477 -37.41814,0.54554 -51.42312,1.49053 l 20.12209,16.02315 l 36.51787,0.37263 l 0.37263,24.59368 l 25.33893,20.4947 c -6.4346,-10.5567 -7.21682,-30.53489 -10.80631,-45.83365 c 15.77483,-0.86947 37.82655,1.39991 47.32418,-2.60842 c -16.94757,20.92221 -26.25322,34.20157 -36.51787,48.44207 l 23.84841,19.0042 c 11.2001,-15.4466 19.96141,-29.8493 37.63576,-48.06944 l -2.76278,-119.087 c -27.63434,-5.664 -30.55577,-17.82668 -31.56932,-38.45555 c -58.86979,26.0029 -104.17878,0.43245 -160.50274,22.66671 l 35.44171,37.31679 c 13.00542,-1.09762 30.84492,-3.58879 36.28534,1.61832 c 21.92205,-34.94984 49.94154,-8.81994 93.64672,-33.65308 c 1.63211,35.13764 3.72095,65.70831 4.44505,109.92623 l -17.14104,-13.04209 l -31.80185,-0.98991 l -4.75388,-25.68513 l -24.05589,-20.64914 c -18.58536,17.29307 -29.15944,32.2967 -41.11763,47.69681 l -16.39577,-14.90525 l -14.90526,21.61261 l -25.33893,-16.39578 c 2.28856,-4.96841 4.21402,-10.46368 10.34336,-15.4323 c -18.30813,-12.55996 -36.76828,-26.62555 -53.22368,-33.62625 c 2.48727,-7.76762 4.67339,-19.82657 3.01861,-35.87992 z"
     id="frieseguertel"
     inkscape:connector-curvature="0"
     style="fill:#fcdd09;stroke:black;stroke-width:5.96210098;stroke-linecap:round;stroke-linejoin:round;stroke-miterlimit:4;stroke-dasharray:none" />
  <path
     class="linie"
     d="m 836.18228,1248.803 c 55.67708,-8.015 140.19284,10.7114 176.13242,-31.2861"
     id="friesesaum-1"
     inkscape:connector-curvature="0"
     style="fill:none;stroke:black;stroke-width:5.96210098;stroke-linecap:round;stroke-linejoin:round;stroke-miterlimit:4;stroke-dasharray:none" />
  <path
     sodipodi:nodetypes="cccccccccccccccccccccccccccccccccccccccccccccccccccccccccccccccccccccccccccccccccccccccccccc"
     class="linie"
     d="m 339.0772,530.37584 c -3.77639,11.3105 -7.55249,17.58323 -11.32859,21.89939 m -7.30298,-30.84195 c -0.36959,9.51929 -4.25634,18.29988 -10.58332,24.88045 m -35.62355,-30.84195 l 32.6425,14.44677 m 1036.07964,425.25341 l -7.6023,21.89939 m -374.71806,-188.10429 c -1.00203,15.97426 -6.53178,20.62947 -11.32859,27.11624 m -256.96655,19.09005 c 14.7398,6.51419 28.98237,11.78488 47.54775,27.86149 m 24.30689,355.52006 l -58.21395,-290.66432 c 44.71576,115.01492 74.27585,212.14642 111.41378,318.22712 m -205.1231,-85.4667 c 31.4471,24.2087 93.42612,82.8106 98.24648,52.8183 c 6.69663,-41.6722 16.54572,-73.6648 30.46633,-105.5561 m -61.03999,-54.0613 c 1.69199,21.68 -5.39182,35.3821 -4.74285,56.95 m 109.55063,-105.6962 c 38.95338,79.8385 65.38636,159.677 147.41294,239.5155 m -63.94353,-177.6587 c 41.00435,48.2901 82.61087,96.0525 144.95952,144.3395 m -15.28233,-214.39414 c 44.49803,43.83934 81.63303,88.48354 155.39333,133.25294 m 58.4969,78.4016 c 33.9661,38.8133 3.8508,75.203 -37.4119,44.2567 m -277.83405,-207.8418 l 207.03405,154.9282 m -194.36458,-222.37447 l 247.58528,188.83767 m -347.08381,-186.60188 l 37.11408,25.25308 m 7.22965,-68.47772 l 37.48671,26.7436 m -149.64874,-22.64465 c 19.54973,-24.87369 35.95445,-51.18762 59.24242,-80.61953 c 9.14347,6.1195 18.28695,10.33252 27.43043,22.02936 m 62.00585,-114.68399 c 13.54291,7.62612 7.13038,23.38336 16.99139,32.33247 m -0.59547,-85.99138 c 10.871,15.20157 3.20045,31.72732 9.53876,50.21878 m 6.85702,-91.95349 c 9.68245,26.92505 3.06869,44.90655 9.53876,67.35982 m 156.65415,12.38269 c -1.2099,10.6348 7.0681,20.00901 -6.857,32.33247 m -77.3582,-108.34926 c 2.0245,12.34155 4.5923,48.0605 17.7366,56.18088 m -474.5832,-12.21098 c 5.90754,26.18157 -8.20922,40.44987 2.086,57.6714 m 6.48438,-63.6335 c 8.02379,5.71586 1.14224,30.5498 15.8735,38.29457 m 22.88015,23.93426 c 4.81887,11.66724 0.42522,22.71739 3.57667,37.17668 m 165.59735,-97.91558 c 7.74209,1.53901 17.10497,4.38115 31.52461,2.14993 m -13.26508,-12.58361 c 27.90383,-1.25323 30.60347,-13.38969 48.66565,0.65941 m -50.67785,-42.10734 c -4.84809,21.0965 -10.77471,41.23389 -25.3753,56.5386 c 13.55126,13.44812 26.02159,35.92762 44.3789,36.99186 m -60.96249,-23.38992 c 17.96053,12.14381 17.73487,32.78559 38.23198,37.54931 m -38.96233,-128.11959 c -5.30419,37.62682 -17.49519,77.02439 -38.58076,107.74709 c 29.99831,2.65016 32.31757,42.21764 52.58871,33.76636 m -71.39616,-25.25307 c 54.03154,-24.32239 104.24436,-52.46649 144.4319,-90.63586 m 7.17598,-256.50747 c 24.98389,2.62869 25.56311,9.01191 33.72761,14.22855 m -42.68864,-34.29102 c 13.12467,0.21125 25.03695,1.28841 28.45681,8.4316 m -32.70213,-34.77992 c 10.62626,-0.0695 25.07988,5.23115 25.29511,13.17446 m -29.51091,-49.00847 c -4.5935,4.49979 -5.40882,7.44845 -1.58091,14.7552 m 65.87227,37.41517 c 26.45206,21.93735 20.53199,38.41978 -16.33645,8.95865 m -5.79695,-50.06376 c 3.4127,3.71439 7.30596,6.46749 12.12065,7.3779 m 29.51091,19.49806 c 4.31895,2.35602 9.21741,4.13293 9.4857,10.5396 m -143.8953,120.67889 c 16.48878,0.14905 32.94955,0.19476 45.32091,-14.75541 m 19.49815,-27.93005 c 5.96866,1.45515 9.30774,-3.2261 11.06656,-11.59351 m -71.66446,-31.62 c -3.70753,-6.40429 -17.93072,-4.48708 -8.60987,-13.49701 l 13.87977,14.02406 m -10.5395,-27.40301 c 12.53442,0.30109 12.78811,10.42712 18.97141,15.80931"
     id="friesesaum-2"
     inkscape:connector-curvature="0"
     style="fill:none;stroke:black;stroke-width:5.96210098;stroke-linecap:round;stroke-linejoin:round;stroke-miterlimit:4;stroke-dasharray:none" />
  <path
     sodipodi:nodetypes="ccccscc"
     class="kleidung"
     d="m 666.086,1579.7784 c 0.91737,22.5011 20.04558,34.7956 15.21007,79.3203 c -8.63389,22.9182 -13.19216,18.7779 -38.83963,18.4013 c -39.38776,-1.0096 -210.44904,-49.1472 -190.70779,-79.1135 c 16.89778,-18.5821 49.26287,4.6323 71.63267,6.5565 c 24.15367,2.0776 63.56494,4.8172 74.63656,-24.0782 c 31.78432,11.6985 44.0462,1.9363 68.06812,-1.0864 z"
     id="friesekleidung-3"
     inkscape:connector-curvature="0"
     style="fill:#f2a772;fill-opacity:1;stroke:black;stroke-width:5.96210098;stroke-linecap:round;stroke-linejoin:round;stroke-miterlimit:4;stroke-dasharray:none" />
  <path
     style="fill:#f2a772;fill-opacity:1;stroke:black;stroke-width:5.96210098;stroke-linecap:round;stroke-linejoin:round;stroke-miterlimit:4;stroke-dasharray:none"
     inkscape:connector-curvature="0"
     id="path888-7"
     d="m 1228.9504,1409.3086 c 20.8892,8.4133 48.4498,11.0487 76.451,28.9792 c 17.3432,17.2914 7.9769,21.3892 3.7963,39.3991 c -17.302,35.7078 -132.6289,173.0999 -151.5061,143.5189 c -9.9933,-23.0427 25.4653,-45.1939 36.4149,-64.7955 c 11.8226,-21.1645 24.9226,-65.8482 3.1327,-87.8192 c 28.6608,-18.2482 38.4696,-26.1261 31.7112,-59.2825 z"
     class="kleidung"
     sodipodi:nodetypes="ccccscc" />
</svg>
