<?xml version="1.0" encoding="UTF-8" standalone="no"?>
<!-- Created with Inkscape (http://www.inkscape.org/) -->

<svg
   xmlns:dc="http://purl.org/dc/elements/1.1/"
   xmlns:cc="http://creativecommons.org/ns#"
   xmlns:rdf="http://www.w3.org/1999/02/22-rdf-syntax-ns#"
   xmlns:svg="http://www.w3.org/2000/svg"
   xmlns="http://www.w3.org/2000/svg"
   xmlns:sodipodi="http://sodipodi.sourceforge.net/DTD/sodipodi-0.dtd"
   xmlns:inkscape="http://www.inkscape.org/namespaces/inkscape"
   width="210mm"
   height="297mm"
   viewBox="0 0 210 297"
   version="1.1"
   id="svg206"
   inkscape:version="0.92.4 (5da689c313, 2019-01-14)"
   sodipodi:docname="Pinguin.svg">
  <defs
     id="defs200" />
  <sodipodi:namedview
     id="base"
     pagecolor="#ffffff"
     bordercolor="#666666"
     borderopacity="1.0"
     inkscape:pageopacity="0.0"
     inkscape:pageshadow="2"
     inkscape:zoom="0.41230901"
     inkscape:cx="65.428132"
     inkscape:cy="598.92295"
     inkscape:document-units="mm"
     inkscape:current-layer="layer-tux-klein-fluegel"
     showgrid="false"
     inkscape:window-width="1920"
     inkscape:window-height="1015"
     inkscape:window-x="0"
     inkscape:window-y="0"
     inkscape:window-maximized="1" />
  <metadata
     id="metadata203">
    <rdf:RDF>
      <cc:Work
         rdf:about="">
        <dc:format>image/svg+xml</dc:format>
        <dc:type
           rdf:resource="http://purl.org/dc/dcmitype/StillImage" />
        <dc:title />
      </cc:Work>
    </rdf:RDF>
  </metadata>
  <g
     inkscape:groupmode="layer"
     id="umriss"
     inkscape:label="Umriss"
     style="display:inline;opacity:1" />
  <g
     inkscape:groupmode="layer"
     id="layer-bauch"
     inkscape:label="Bauch"
     style="display:inline" />
  <g
     inkscape:groupmode="layer"
     id="layer-brust"
     inkscape:label="Brust"
     style="display:inline" />
  <g
     style="display:inline;opacity:1"
     inkscape:label="Flügel"
     id="layer-fluegel"
     inkscape:groupmode="layer" />
  <g
     inkscape:groupmode="layer"
     id="layer-nase"
     inkscape:label="Nase"
     style="display:inline" />
  <g
     inkscape:groupmode="layer"
     id="layer-fuss"
     inkscape:label="Fuss"
     style="display:inline" />
  <g
     inkscape:groupmode="layer"
     id="layer8"
     inkscape:label="Tux klein"
     style="display:inline" />
  <g
     inkscape:groupmode="layer"
     id="layer9"
     inkscape:label="Tux klein Kopf"
     style="display:inline" />
  <g
     inkscape:groupmode="layer"
     id="layer-tux-klein-bauch"
     inkscape:label="Tux klein Bauch"
     style="display:inline" />
  <g
     inkscape:groupmode="layer"
     id="layer-tux-klein-fluegel"
     inkscape:label="Tux klein Flügel"
     style="display:inline">
    <g
       id="g4574">
      <path
         sodipodi:nodetypes="ccccccccccccccccccccccccccc"
         inkscape:connector-curvature="0"
         id="path-umriss"
         d="m 134.98736,1.8210615 c -31.39008,1.979374 -55.963306,4.6227337 -83.787086,57.5114925 -26.917913,18.056564 -39.881236,38.049186 -30.995398,108.973236 0.118751,8.35864 -11.2762524,11.43902 -13.9223782,20.93606 -3.7625485,7.36853 -1.972694,20.21449 1.7087601,24.64808 1.8982626,1.53746 43.4035761,10.55049 75.9777401,0.43727 4.262196,5.0757 11.697927,7.11377 23.827282,3.70148 10.82791,3.72533 7.45632,15.72915 31.70779,8.53363 6.06933,-2.93267 5.78201,-8.84609 6.80588,-13.94109 5.93324,-1.90631 9.30758,2.9967 17.34288,-3.85248 1.57835,4.36413 1.99359,7.36515 8.89539,4.95398 4.12176,-2.8397 6.11173,-6.39 4.19803,-11.24153 12.22297,-7.93702 6.99611,-50.13448 -4.11697,-65.56488 1.26171,-5.86661 1.62933,-18.27944 -2.2785,-20.65525 2.58294,-1.85554 5.01483,-6.55774 5.70715,-11.02569 -2.26343,-14.506685 -15.00908,-7.485463 -21.4492,0.33769 -1.35606,-0.56916 -3.24562,-0.81821 -5.86092,-0.63182 0.56463,-12.828934 0.93692,-27.358765 -4.18183,-40.187702 3.87277,0.579027 8.03333,2.381136 10.95805,-1.06908 3.76966,4.562645 6.97116,9.893984 14.85917,8.884749 7.48355,7.127186 8.90835,20.914089 21.78918,22.3265 3.9629,0.916193 5.16769,-4.429598 6.38205,-8.760609 0.27612,-6.169961 2.67906,-7.997648 -2.6727,-25.65787 5.07045,-3.016453 5.96703,-12.885295 -1.66847,-24.23768 -2.06627,-10.183446 -8.80849,-18.901249 -16.23859,-24.939915 -13.1722,-10.1700135 -27.70302,-9.2632583 -39.30483,-9.4327148 z"
         style="display:inline;opacity:1;fill:black;fill-opacity:1;stroke:black;stroke-width:2;stroke-linecap:butt;stroke-linejoin:miter;stroke-miterlimit:4;stroke-dasharray:none;stroke-opacity:1" />
      <path
         sodipodi:nodetypes="ccccccc"
         inkscape:connector-curvature="0"
         id="path338-7"
         d="m 99.29866,83.608627 c -12.41445,29.939933 -5.521262,94.281273 -14.886976,122.132233 -9.281128,-2.38858 -76.104296,-14.25519 -74.6053925,3.15773 1.1567805,6.43534 40.6843645,16.5317 74.1627075,5.42861 4.2622,5.0757 11.69793,7.11377 23.827281,3.70148 8.10537,-12.60997 15.39709,-17.39521 28.3046,-19.14563 19.65546,-53.61535 17.92013,-44.09556 12.09789,-103.995668"
         style="display:inline;opacity:1;fill:#ddd;fill-opacity:1;stroke:black;stroke-width:2;stroke-linecap:butt;stroke-linejoin:miter;stroke-miterlimit:4;stroke-dasharray:none;stroke-opacity:1" />
      <path
         sodipodi:nodetypes="cccccc"
         inkscape:connector-curvature="0"
         id="path338-7-5"
         d="m 99.348386,84.316122 c -9.241954,-43.645576 44.010904,-59.309065 44.245884,-40.023039 2.48897,-62.61363 59.2382,9.518974 8.9689,6.04399 4.76585,0.06247 -0.34179,7.981195 2.96086,13.347385 4.26218,5.0757 -6.75207,7.430799 -10.95805,1.06908 6.2203,20.092067 6.72095,9.578177 3.68251,30.841339"
         style="display:inline;opacity:1;fill:#fff200;fill-opacity:1;stroke:black;stroke-width:2;stroke-linecap:butt;stroke-linejoin:miter;stroke-miterlimit:4;stroke-dasharray:none;stroke-opacity:1" />
      <g
         transform="translate(34.925016)"
         id="g855"
         style="display:inline;opacity:1">
        <path
           sodipodi:nodetypes="cccc"
           inkscape:connector-curvature="0"
           id="path-fluegel-1"
           d="m 32.386106,65.393465 c -35.04063,4.540014 -34.319131,49.619305 -29.937065,108.973235 12.041002,44.94508 35.364382,5.37478 55.601424,-40.08706 23.058511,-40.333523 -1.226675,-57.093944 5.683136,-65.550486"
           style="opacity:1;fill:black;fill-opacity:1;stroke:black;stroke-width:2;stroke-linecap:butt;stroke-linejoin:miter;stroke-miterlimit:4;stroke-dasharray:none;stroke-opacity:1" />
        <g
           id="g838"
           transform="translate(59.795865,2.1166667)">
          <g
             id="g849"
             style="stroke:black;stroke-opacity:1">
            <path
               style="opacity:1;fill:#ddd;fill-opacity:1;stroke:black;stroke-width:2;stroke-linecap:butt;stroke-linejoin:miter;stroke-miterlimit:4;stroke-dasharray:none;stroke-opacity:1"
               d="m -33.839745,65.318711 c -33.215611,5.684395 -27.897922,47.568609 -23.507079,106.931319 11.275455,-31.01351 -9.016915,-69.97583 23.507079,-106.931319"
               id="path835"
               inkscape:connector-curvature="0"
               sodipodi:nodetypes="ccc" />
          </g>
        </g>
      </g>
      <path
         sodipodi:nodetypes="cc"
         inkscape:connector-curvature="0"
         id="path1242"
         d="m 177.19264,67.852017 c 20.20748,25.096572 19.63425,17.188482 9.07516,-6.579495"
         style="display:inline;fill:#f30;stroke:black;stroke-width:1;stroke-linecap:butt;stroke-linejoin:miter;stroke-miterlimit:4;stroke-dasharray:none;stroke-opacity:1" />
      <path
         sodipodi:nodetypes="cccc"
         inkscape:connector-curvature="0"
         id="path338-3"
         d="m 108.14542,218.50658 c 10.82792,3.72533 7.45632,15.72915 31.70779,8.53363 6.06933,-2.93267 5.78202,-8.84609 6.80588,-13.94109 -1.21174,-8.25895 -10.08016,-16.64342 -10.55821,-14.21607"
         style="display:inline;opacity:1;fill:black;fill-opacity:1;stroke:black;stroke-width:2;stroke-linecap:butt;stroke-linejoin:miter;stroke-miterlimit:4;stroke-dasharray:none;stroke-opacity:1" />
      <path
         sodipodi:nodetypes="ccccccccccccc"
         inkscape:connector-curvature="0"
         id="path338-5"
         d="m 138.10118,142.35189 c -6.86108,11.06519 -12.35626,12.78469 -10.27084,39.71511 -2.51163,13.30037 1.39198,10.82718 4.23357,17.20997 11.27072,-4.48604 14.63329,15.09104 14.06601,13.28441 5.93325,-1.90631 9.30759,2.9967 17.34288,-3.85248 1.57835,4.36413 1.99359,7.36515 8.8954,4.95398 4.12175,-2.8397 6.11173,-6.39 4.19803,-11.24153 12.22297,-7.93702 6.99611,-50.13448 -4.11697,-65.56488 1.2617,-5.86661 1.62932,-18.27944 -2.27851,-20.65525 2.58294,-1.85554 5.01483,-6.55774 5.70715,-11.02569 -2.26342,-14.506636 -15.00908,-7.485445 -21.4492,0.33769 -1.35606,-0.56916 -3.24562,-0.81821 -5.86092,-0.63182 -22.08867,10.27978 -10.16709,25.06058 -10.4666,37.47049"
         style="display:inline;opacity:1;fill-opacity:1;stroke:black;stroke-width:2;stroke-linecap:butt;stroke-linejoin:miter;stroke-miterlimit:4;stroke-dasharray:none;stroke-opacity:1" />
      <path
         sodipodi:nodetypes="cccccc"
         inkscape:connector-curvature="0"
         id="path1292"
         d="m 154.95847,110.27842 c -17.59542,4.043 -18.71018,16.12082 -12.25147,30.40181 l 18.6041,3.40319 11.31818,-7.16711 c 1.43259,-6.15433 -0.13346,-13.30838 -2.2785,-20.65525 -8.13528,3.65629 -11.07716,-3.63585 -15.39231,-5.98264 z"
         style="display:inline;fill:#ddd;fill-opacity:1;stroke:black;stroke-width:2;stroke-linecap:butt;stroke-linejoin:miter;stroke-opacity:1" />
      <ellipse
         ry="3.0628688"
         rx="4.1972647"
         cy="121.73582"
         cx="153.2569"
         id="path1294"
         style="display:inline;opacity:1;fill:#da121a;fill-opacity:1;stroke:black;stroke-width:1;stroke-miterlimit:4;stroke-dasharray:none;stroke-opacity:1" />
      <ellipse
         ry="3.0628691"
         rx="4.1972647"
         cy="52.651119"
         cx="191.03227"
         id="path1294-9"
         style="display:inline;opacity:1;fill:#da121a;fill-opacity:1;stroke:black;stroke-width:1;stroke-miterlimit:4;stroke-dasharray:none;stroke-opacity:1" />
      <path
         sodipodi:nodetypes="cccccc"
         inkscape:connector-curvature="0"
         id="path338-5-2"
         d="m 138.10121,142.35189 c -17.57513,21.22208 -16.79988,43.89833 -6.0373,56.92508 11.27078,-4.48604 14.5898,15.25355 14.02252,13.44692 6.38703,0.81624 12.07363,1.24604 17.38637,-4.01499 33.15561,-6.48951 22.0839,-54.85031 8.93299,-71.68992 -17.8469,13.5147 -16.2723,-0.89077 -34.34815,5.49542"
         style="display:inline;opacity:1;fill:#aaa;fill-opacity:1;stroke:black;stroke-width:2;stroke-linecap:butt;stroke-linejoin:miter;stroke-miterlimit:4;stroke-dasharray:none;stroke-opacity:1" />
      <path
         sodipodi:nodetypes="cc"
         inkscape:connector-curvature="0"
         id="path1317"
         d="m 168.11747,156.3349 c 8.94597,10.54285 3.8743,36.36695 -4.53758,43.5608"
         style="display:inline;fill:none;stroke:black;stroke-width:2;stroke-linecap:butt;stroke-linejoin:miter;stroke-opacity:1" />
      <path
         sodipodi:nodetypes="ccccc"
         inkscape:connector-curvature="0"
         id="path1315"
         d="m 140.55331,147.73262 c -11.14059,17.82754 -10.92788,41.05416 -5.81371,59.54496 20.48387,-12.8816 24.77682,-34.22014 28.38653,-58.65658 v 0 0"
         style="fill:#aaa;stroke:black;stroke-width:2;stroke-linecap:butt;stroke-linejoin:miter;stroke-opacity:1" />
    </g>
  </g>
</svg>
